<?xml version="1.0" ?><!DOCTYPE svg  PUBLIC '-//W3C//DTD SVG 1.1//EN'  'http://www.w3.org/Graphics/SVG/1.1/DTD/svg11.dtd'><svg height="48px" id="Layer_1" style="enable-background:new 0 0 48 48;" version="1.1" viewBox="0 0 48 48" width="48px" xml:space="preserve" xmlns="http://www.w3.org/2000/svg" xmlns:xlink="http://www.w3.org/1999/xlink"><g><path d="M43.542,35.004c0,0.551-0.45,1-1,1H5.738c-0.55,0-1-0.449-1-1   V19.239c0-0.55,0.45-1,1-1h36.804c0.55,0,1,0.45,1,1V35.004z" style="fill:none;stroke:#FFFFFF;stroke-miterlimit:10;"/></g><line style="fill:none;stroke:#FFFFFF;stroke-miterlimit:10;" x1="15.959" x2="32.633" y1="32.888" y2="32.888"/><rect height="1.607" style="fill:#FFFFFF;" width="1.739" x="9.608" y="22.003"/><rect height="1.607" style="fill:#FFFFFF;" width="1.753" x="12.544" y="22.003"/><rect height="1.607" style="fill:#FFFFFF;" width="1.78" x="15.627" y="22.003"/><rect height="1.607" style="fill:#FFFFFF;" width="1.78" x="18.637" y="21.974"/><rect height="1.608" style="fill:#FFFFFF;" width="1.78" x="21.661" y="21.944"/><rect height="1.607" style="fill:#FFFFFF;" width="1.781" x="24.597" y="21.959"/><rect height="1.607" style="fill:#FFFFFF;" width="1.779" x="27.695" y="21.93"/><rect height="1.607" style="fill:#FFFFFF;" width="1.78" x="31.055" y="21.93"/><rect height="1.607" style="fill:#FFFFFF;" width="1.78" x="34.064" y="21.93"/><rect height="1.607" style="fill:#FFFFFF;" width="1.779" x="37.074" y="21.93"/><rect height="1.607" style="fill:#FFFFFF;" width="1.738" x="9.521" y="24.516"/><rect height="1.607" style="fill:#FFFFFF;" width="1.753" x="12.457" y="24.516"/><rect height="1.607" style="fill:#FFFFFF;" width="1.779" x="15.54" y="24.516"/><rect height="1.607" style="fill:#FFFFFF;" width="1.779" x="18.549" y="24.487"/><rect height="1.606" style="fill:#FFFFFF;" width="1.78" x="21.573" y="24.458"/><rect height="1.606" style="fill:#FFFFFF;" width="1.779" x="24.51" y="24.473"/><rect height="1.608" style="fill:#FFFFFF;" width="1.779" x="27.607" y="24.443"/><rect height="1.608" style="fill:#FFFFFF;" width="1.779" x="30.968" y="24.443"/><rect height="1.608" style="fill:#FFFFFF;" width="1.779" x="33.977" y="24.443"/><rect height="1.607" style="fill:#FFFFFF;" width="1.778" x="37.036" y="24.404"/><rect height="1.607" style="fill:#FFFFFF;" width="1.738" x="9.579" y="26.971"/><rect height="1.607" style="fill:#FFFFFF;" width="1.753" x="12.516" y="26.971"/><rect height="1.607" style="fill:#FFFFFF;" width="1.779" x="15.598" y="26.971"/><rect height="1.607" style="fill:#FFFFFF;" width="1.78" x="18.607" y="26.941"/><rect height="1.606" style="fill:#FFFFFF;" width="1.78" x="21.632" y="26.912"/><rect height="1.606" style="fill:#FFFFFF;" width="1.779" x="24.568" y="26.927"/><rect height="1.605" style="fill:#FFFFFF;" width="1.779" x="27.666" y="26.898"/><rect height="1.605" style="fill:#FFFFFF;" width="1.78" x="31.025" y="26.898"/><rect height="1.605" style="fill:#FFFFFF;" width="1.78" x="34.035" y="26.898"/><rect height="1.607" style="fill:#FFFFFF;" width="1.779" x="37.074" y="26.955"/><path d="M17.706,18.239c0.959-1.59,2.682-3.168,5.814-3.739  c7.174-1.311,4.867-3.034,5.353-4.345" style="fill:none;stroke:#FFFFFF;stroke-miterlimit:10;"/></svg>
